<svg width="26" height="26" viewBox="0 0 26 26" fill="none" xmlns="http://www.w3.org/2000/svg">
<path d="M13 2.16666C10.8573 2.16666 8.76282 2.80203 6.98129 3.99241C5.19975 5.18279 3.81122 6.87473 2.99127 8.85426C2.17132 10.8338 1.95678 13.012 2.37479 15.1135C2.7928 17.2149 3.82457 19.1453 5.33964 20.6603C6.85471 22.1754 8.78503 23.2072 10.8865 23.6252C12.9879 24.0432 15.1662 23.8286 17.1457 23.0087C19.1252 22.1887 20.8172 20.8002 22.0076 19.0187C23.1979 17.2371 23.8333 15.1426 23.8333 13C23.8333 11.5773 23.5531 10.1686 23.0087 8.85426C22.4642 7.5399 21.6663 6.34564 20.6603 5.33967C19.6543 4.33371 18.4601 3.53573 17.1457 2.9913C15.8313 2.44688 14.4226 2.16666 13 2.16666ZM19.5 11.9167H14.0833L16.0441 9.95583C15.6479 9.54932 15.1746 9.22592 14.6519 9.00456C14.1292 8.7832 13.5676 8.66833 13 8.66666C12.1889 8.66403 11.3934 8.88908 10.7039 9.31621C10.0144 9.74335 9.4586 10.3554 9.09975 11.0828C8.74091 11.8102 8.59341 12.6237 8.67403 13.4307C8.75465 14.2378 9.06016 15.006 9.5558 15.648C10.0514 16.29 10.7173 16.7801 11.4777 17.0624C12.238 17.3447 13.0624 17.4079 13.8569 17.2449C14.6514 17.0819 15.3842 16.6991 15.972 16.1402C16.5598 15.5813 16.9789 14.8687 17.1816 14.0833H19.4025C19.1959 15.3055 18.6441 16.4432 17.8123 17.3622C16.9804 18.2811 15.9031 18.943 14.7074 19.2699C13.5118 19.5968 12.2476 19.575 11.0639 19.207C9.88023 18.8391 8.82644 18.1403 8.02679 17.1932C7.22715 16.2461 6.715 15.0901 6.55072 13.8615C6.38644 12.6328 6.57688 11.3829 7.0996 10.2589C7.62232 9.135 8.45551 8.18395 9.50094 7.51795C10.5464 6.85194 11.7604 6.49874 13 6.5C13.852 6.50107 14.6952 6.67218 15.4802 7.0033C16.2652 7.33442 16.9762 7.8189 17.5716 8.42833L19.5 6.5V11.9167Z" fill="white"/>
</svg>
