<svg width="58" height="58" viewBox="0 0 58 58" fill="none" xmlns="http://www.w3.org/2000/svg">
<path d="M27.4006 7.63662V10.4712C27.4006 10.8471 27.5499 11.2076 27.8157 11.4734C28.0815 11.7392 28.442 11.8885 28.8178 11.8885C29.1937 11.8885 29.5542 11.7392 29.82 11.4734C30.0858 11.2076 30.2351 10.8471 30.2351 10.4712V7.63662C30.2351 7.26073 30.0858 6.90024 29.82 6.63444C29.5542 6.36865 29.1937 6.21933 28.8178 6.21933C28.442 6.21933 28.0815 6.36865 27.8157 6.63444C27.5499 6.90024 27.4006 7.26073 27.4006 7.63662ZM28.8178 14.723C26.5625 14.723 24.3996 15.619 22.8048 17.2137C21.2101 18.8085 20.3141 20.9714 20.3141 23.2268C20.3141 25.4821 21.2101 27.645 22.8048 29.2398C24.3996 30.8346 26.5625 31.7305 28.8178 31.7305C31.0732 31.7305 33.2361 30.8346 34.8309 29.2398C36.4256 27.645 37.3216 25.4821 37.3216 23.2268C37.3216 20.9714 36.4256 18.8085 34.8309 17.2137C33.2361 15.619 31.0732 14.723 28.8178 14.723ZM23.1487 23.2268C23.1487 21.7232 23.746 20.2812 24.8092 19.2181C25.8723 18.1549 27.3143 17.5576 28.8178 17.5576C30.3214 17.5576 31.7634 18.1549 32.8265 19.2181C33.8897 20.2812 34.487 21.7232 34.487 23.2268C34.487 24.7303 33.8897 26.1723 32.8265 27.2355C31.7634 28.2986 30.3214 28.8959 28.8178 28.8959C27.3143 28.8959 25.8723 28.2986 24.8092 27.2355C23.746 26.1723 23.1487 24.7303 23.1487 23.2268ZM17.8594 47.1987C21.4446 46.3155 25.1255 45.8804 28.8178 45.9033C33.5487 45.9033 37.4491 46.5525 40.5246 47.3972C43.4726 48.205 45.6694 49.1943 47.1122 49.9709C47.7972 50.3375 48.4598 50.7445 49.0964 51.1898L49.1814 51.2522L49.1928 51.2635C49.4867 51.4981 49.8618 51.6063 50.2355 51.5643C50.6092 51.5223 50.9509 51.3335 51.1855 51.0396C51.42 50.7456 51.5282 50.3706 51.4862 49.9969C51.4442 49.6232 51.2555 49.2814 50.9615 49.0469L50.9559 49.0412L50.9417 49.0327L50.9048 49.0044L50.7716 48.9052C50.0284 48.3815 49.2541 47.9034 48.4529 47.4737C46.1731 46.2712 43.7657 45.328 41.2758 44.6618C37.965 43.7547 33.8095 43.0688 28.8178 43.0688C24.223 43.0688 20.3368 43.6499 17.1649 44.452C14.4667 45.1131 11.856 46.0902 9.38685 47.3631C8.7044 47.7198 8.04028 48.1106 7.39698 48.5338C7.17232 48.6823 6.95207 48.8373 6.73653 48.9987L6.69401 49.0327L6.68267 49.0412L6.677 49.0469C6.38306 49.2814 6.19149 49.6232 6.1495 49.9969C6.1075 50.3706 6.21568 50.7456 6.45024 51.0396C6.68479 51.3335 7.02651 51.5223 7.40021 51.5642C7.77391 51.6062 8.149 51.4981 8.44294 51.2635L8.45995 51.2493L8.55065 51.1813C9.24073 50.7003 9.96023 50.2629 10.7049 49.8717C12.9762 48.7022 15.3777 47.805 17.8594 47.1987ZM27.4006 38.8169V35.9823C27.4006 35.6064 27.5499 35.246 27.8157 34.9802C28.0815 34.7144 28.442 34.5651 28.8178 34.5651C29.1937 34.5651 29.5542 34.7144 29.82 34.9802C30.0858 35.246 30.2351 35.6064 30.2351 35.9823V38.8169C30.2351 39.1928 30.0858 39.5533 29.82 39.8191C29.5542 40.0849 29.1937 40.2342 28.8178 40.2342C28.442 40.2342 28.0815 40.0849 27.8157 39.8191C27.5499 39.5533 27.4006 39.1928 27.4006 38.8169ZM11.8104 24.644C11.8104 24.2682 11.9597 23.9077 12.2255 23.6419C12.4913 23.3761 12.8518 23.2268 13.2277 23.2268H16.0623C16.4382 23.2268 16.7987 23.3761 17.0644 23.6419C17.3302 23.9077 17.4796 24.2682 17.4796 24.644C17.4796 25.0199 17.3302 25.3804 17.0644 25.6462C16.7987 25.912 16.4382 26.0613 16.0623 26.0613H13.2277C12.8518 26.0613 12.4913 25.912 12.2255 25.6462C11.9597 25.3804 11.8104 25.0199 11.8104 24.644ZM41.5734 26.0613H44.408C44.7839 26.0613 45.1444 25.912 45.4102 25.6462C45.676 25.3804 45.8253 25.0199 45.8253 24.644C45.8253 24.2682 45.676 23.9077 45.4102 23.6419C45.1444 23.3761 44.7839 23.2268 44.408 23.2268H41.5734C41.1975 23.2268 40.837 23.3761 40.5712 23.6419C40.3055 23.9077 40.1561 24.2682 40.1561 24.644C40.1561 25.0199 40.3055 25.3804 40.5712 25.6462C40.837 25.912 41.1975 26.0613 41.5734 26.0613ZM19.9003 17.1438C19.7686 17.2758 19.6122 17.3805 19.44 17.4519C19.2679 17.5234 19.0833 17.5602 18.8968 17.5602C18.7104 17.5602 18.5258 17.5234 18.3536 17.4519C18.1815 17.3805 18.0251 17.2758 17.8934 17.1438L15.0588 14.3092C14.9272 14.1774 14.8229 14.021 14.7518 13.8489C14.6806 13.6768 14.6441 13.4924 14.6442 13.3062C14.6443 13.12 14.6811 12.9356 14.7525 12.7636C14.8239 12.5916 14.9285 12.4353 15.0602 12.3037C15.192 12.1722 15.3484 12.0678 15.5205 11.9967C15.6926 11.9255 15.877 11.889 16.0633 11.8891C16.2495 11.8892 16.4339 11.926 16.6059 11.9974C16.7779 12.0688 16.9341 12.1734 17.0657 12.3052L19.9003 15.1397C20.166 15.4055 20.3152 15.7659 20.3152 16.1418C20.3152 16.5176 20.166 16.878 19.9003 17.1438ZM17.8934 32.1443C18.0252 32.0126 18.1816 31.908 18.3538 31.8367C18.526 31.7654 18.7105 31.7287 18.8968 31.7287C19.0832 31.7287 19.2677 31.7654 19.4399 31.8367C19.6121 31.908 19.7685 32.0126 19.9003 32.1443C20.0321 32.2761 20.1366 32.4325 20.2079 32.6047C20.2792 32.7769 20.3159 32.9614 20.3159 33.1478C20.3159 33.3341 20.2792 33.5187 20.2079 33.6908C20.1366 33.863 20.0321 34.0194 19.9003 34.1512L17.0657 36.9858C16.8 37.2519 16.4394 37.4016 16.0633 37.4018C15.6872 37.4021 15.3264 37.2529 15.0602 36.9872C14.7941 36.7214 14.6445 36.3609 14.6442 35.9848C14.6439 35.6087 14.7931 35.2479 15.0588 34.9817L17.8934 32.1472V32.1443ZM37.7354 17.1438C37.8671 17.2758 38.0235 17.3805 38.1957 17.4519C38.3678 17.5234 38.5524 17.5602 38.7388 17.5602C38.9253 17.5602 39.1099 17.5234 39.282 17.4519C39.4542 17.3805 39.6106 17.2758 39.7423 17.1438L42.5769 14.3092C42.843 14.0431 42.9925 13.6821 42.9925 13.3058C42.9925 12.9294 42.843 12.5684 42.5769 12.3023C42.3107 12.0362 41.9498 11.8867 41.5734 11.8867C41.1971 11.8867 40.8361 12.0362 40.57 12.3023L37.7354 15.1369C37.6034 15.2685 37.4987 15.4249 37.4273 15.5971C37.3558 15.7693 37.319 15.9539 37.319 16.1403C37.319 16.3268 37.3558 16.5113 37.4273 16.6835C37.4987 16.8557 37.6034 17.0121 37.7354 17.1438ZM39.7423 32.1472C39.4765 31.881 39.1159 31.7314 38.7399 31.7311C38.3638 31.7308 38.003 31.88 37.7368 32.1457C37.4707 32.4115 37.321 32.7721 37.3208 33.1482C37.3205 33.5243 37.4697 33.8851 37.7354 34.1512L40.57 36.9858C40.8357 37.2519 41.1963 37.4016 41.5724 37.4018C41.9485 37.4021 42.3093 37.2529 42.5754 36.9872C42.8416 36.7214 42.9912 36.3609 42.9915 35.9848C42.9918 35.6087 42.8426 35.2479 42.5769 34.9817L39.7423 32.1472Z" fill="white"/>
</svg>
